<svg xmlns="http://www.w3.org/2000/svg" xml:space="preserve" style="fill-rule:evenodd;clip-rule:evenodd;stroke-linejoin:round;stroke-miterlimit:2" viewBox="0 0 640 640" width="640" height="640"><metadata><rdf:RDF xmlns:rdf="http://www.w3.org/1999/02/22-rdf-syntax-ns#" xmlns:dc="http://purl.org/dc/elements/1.1/"><rdf:Description><dc:creator>RealFaviconGenerator</dc:creator><dc:source>https://realfavicongenerator.net</dc:source></rdf:Description></rdf:RDF></metadata><path d="M344 32c39.8 0 72 32.2 72 72v192c0 39.8-32.2 72-72 72H240l-83.4 75.8c-2.9 2.7-6.8 4.2-10.8 4.2H144c-8.8 0-16-7.2-16-16v-64h-24c-39.8 0-72-32.2-72-72V104c0-39.8 32.2-72 72-72zm-34.304 282.308c7.901 0 14.285-6.384 14.285-14.286a14.27 14.27 0 0 0-14.285-14.285V255.96c8.303-2.947 14.285-10.893 14.285-20.223V107.165c0-11.83-9.598-21.428-21.428-21.428H166.838c-23.66 0-42.857 19.196-42.857 42.857v142.857c0 23.661 19.197 42.857 42.857 42.857zm-142.858-57.143h114.286v28.572H166.838c-7.901 0-14.285-6.384-14.285-14.286s6.384-14.286 14.285-14.286m14.286-103.571a10.69 10.69 0 0 1 10.714-10.715h78.572a10.69 10.69 0 0 1 10.714 10.715 10.69 10.69 0 0 1-10.714 10.714h-78.572a10.69 10.69 0 0 1-10.714-10.714m10.714 32.143h78.572a10.69 10.69 0 0 1 10.714 10.714 10.69 10.69 0 0 1-10.714 10.714h-78.572a10.69 10.69 0 0 1-10.714-10.714 10.69 10.69 0 0 1 10.714-10.714M224 456v-8.6l34.6-31.4H344c66.3 0 120-53.7 120-120V192h72c39.8 0 72 32.2 72 72v192c0 39.8-32.2 72-72 72h-24v64c0 8.8-7.2 16-16 16h-1.8c-4 0-7.8-1.5-10.8-4.2L400 528H296c-39.8 0-72-32.2-72-72" style="fill:#6200c0"></path><style>@media (prefers-color-scheme: light) { :root { filter: none; } }
@media (prefers-color-scheme: dark) { :root { filter: contrast(0.5405405405405405) brightness(3); } }
</style></svg>
